<svg id="Capa_1" data-name="Capa 1" xmlns="http://www.w3.org/2000/svg" viewBox="0 0 496.69 480.91"><defs><style>.cls-1{fill:#17222e;}.cls-2{fill:#fbbe12;}.cls-3{fill:#e30613;}</style></defs><path class="cls-1" d="M73.89,441.24c-11.23,3.22-22.46,7.63-31.66,14.92a36.3,36.3,0,0,0-6.4,6.82,13.07,13.07,0,0,0,2,17.64c6.8,6.82,15.23,8.82,24.44,8a9.06,9.06,0,0,0,5.22-2.41,27.56,27.56,0,0,1,6.39-4.71,121.67,121.67,0,0,1,1.16-22.65c.85-5.55,1.79-11.64,3.15-17.05l.38-1.64A38.07,38.07,0,0,0,73.89,441.24ZM355.36,199.88c-1.19,0-2.41-.41-3.6-.41-14-1.21-25.57,3.2-33.69,15.62-19.65,30.48-41.69,59.35-63.34,88.63C236.28,329,217.84,354.23,199,379.5c-12,16-24.06,32.48-35.68,48.91a7.62,7.62,0,0,1-6.39,3.62c-15.64,1.2-31.29,2-46.52,3.2a244.33,244.33,0,0,0-31.16,4.71c-.34,2.43-.68,4.82-.91,6.18A211,211,0,0,0,77,467.58a112.2,112.2,0,0,0,.43,12l2.49-1.15a262.6,262.6,0,0,1,46.52-15.24,51.69,51.69,0,0,1,11.23-2,11,11,0,0,1-2.4,4.81c-13.43,17.91-27,35.64-40.49,53.43A50.08,50.08,0,0,0,117.94,531c17.22-23,34.29-46,50.95-69.35a8,8,0,0,1,6.4-4c14-.81,28.47-.81,42.51-.81A348.27,348.27,0,0,1,253.48,458l12.42,1.2c3.22.8,3.22,1.19,3.22,4.41,0,2.4-.41,4.41-.41,6.82-.21,9.48-.32,18.86,0,28.25a502,502,0,0,1,57.6-8.63c0-2.62,0-5.28.13-7.92,0-10,.39-19.63,1.2-29.67.81-14.43,2-28.87,3.21-43.3,2.39-23.25,6.4-46.88,10-70.18,5.2-28.85,11.64-57.73,18.05-86.6a291.15,291.15,0,0,0,6.8-37.3C366.19,206.68,363.39,202.27,355.36,199.88Zm-54.62,85.79c-6,20.06-10.42,40.09-14.42,60.14-4,21.31-8.53,42.11-11.64,63.76-.79,7.61-2,15.24-2.79,23.25a5.12,5.12,0,0,0-.41,2.41c-.81,3.6-1.21,3.6-4.81,2.81a280.33,280.33,0,0,0-54.94-6c-5.2-.4-10.83-.4-16-.81-1.21,0-2.4.41-2.81-.81-.81-1.19.41-2,1.21-2.79,10.43-14.45,20.85-28.47,31.27-42.92C249,351.82,272.68,319,297.14,286.48c1.19-1.62,2.41-3.21,4-5.22A5.25,5.25,0,0,1,300.74,285.67Zm137.94,334a25.85,25.85,0,0,0-9.63-.81c-4,.41-8,2.13-12,2.82-7.22,1.21-14.91,2-22.46,3.21a31.13,31.13,0,0,1-20.43-4.81,59.29,59.29,0,0,1-15.65-14.43c-10.42-12.45-16.83-26.87-21.65-42.11a227.42,227.42,0,0,1-10.08-56.37,575.14,575.14,0,0,0-57.17,7h0c.32,3.73.7,7.48,1.19,11.26,2.81,18.45,6.82,36.88,14,54.15,7.61,18,17.65,34.48,32.48,47.71a80,80,0,0,0,53.28,21.31c9.22.41,18.05-1.21,26.87-2.41a153.26,153.26,0,0,0,35.42-9.67,22.77,22.77,0,0,0,8.52-5.2c4.26-4,3.39-9.23-2.62-11.64ZM90.73,524.91q-8.52,11.25-16.84,22.58c-9.63,13.64-19.65,27.28-28.47,41.3-.81,1.62-1.6,2.82-2.41,4.41-1.19,3.63-.4,6,3.22,7.63a13.2,13.2,0,0,0,6.82,1.6,22.35,22.35,0,0,0,18-9.23c9.23-12,18.45-24.44,27.7-36.48l14-18.67A54.32,54.32,0,0,1,90.73,524.91Z" transform="translate(-33.31 -167.74)"/><path class="cls-1" d="M519,170.19a42.61,42.61,0,0,0-27.28-.4,28.85,28.85,0,0,0-10.42,6.39,77.75,77.75,0,0,0-7.22,9.63c-4.8,8.53-9.61,17.24-14,26.07-6.82,14-13.24,28.06-18.84,42.89-6.4,16.46-13.64,32.48-19.18,49.32-9.63,27.27-17.26,55.4-24.87,83-4.82,16.45-8,33.29-13.23,49.72a358.28,358.28,0,0,0-11.58,51.7,280.76,280.76,0,0,1,56.22,7,335.27,335.27,0,0,1,10.66-41.84c12.78-42.91,26.44-85.41,40.49-127.86,8.52-25.25,17.64-50.5,28.06-75.78,6.39-15.24,13.24-30.47,18-46.88a96.57,96.57,0,0,0,4-15.24C530.89,179.12,527.38,173.41,519,170.19ZM438.43,518.92c-1.45,1.55-2.94,3.07-4.48,4.51a57.25,57.25,0,0,1-8.82,7.63,14.84,14.84,0,0,1,0-6c.19-3.26.38-6.6.66-10a256.24,256.24,0,0,0-55.13-8.4,74.65,74.65,0,0,0,6.8,33.23,26.22,26.22,0,0,0,9.63,12.42c12,8.42,24.85,9.23,38.49,4.82a52.42,52.42,0,0,0,23.25-16.84c3.56-4.26,7.07-8.52,10.65-12.79A183.11,183.11,0,0,0,438.43,518.92Zm72.11-75.68a18.84,18.84,0,0,0-6.52,2.31c-.51.27-1,.59-1.51.91a34.47,34.47,0,0,0-8,7.23c-14,15.62-27.71,31.26-40.9,47.3l-1.34,1.6a183.74,183.74,0,0,1,20.39,8.8Q482,500,491.3,488.57q2-2.38,4-4.86c6.59-8.12,12.94-16.53,19.29-25.23a20.16,20.16,0,0,0,3.6-7.2,6.4,6.4,0,0,0-4.32-7.95A6.55,6.55,0,0,0,510.54,443.24Z" transform="translate(-33.31 -167.74)"/><path class="cls-2" d="M78.2,441.79l2-8.52c-.49,2.9-1.43,10-1.9,12.79A213.48,213.48,0,0,0,77,467.67a110.46,110.46,0,0,0,.51,12.06L74,481.52a123.19,123.19,0,0,1,1.15-22.63A160.73,160.73,0,0,1,78.2,441.79Z" transform="translate(-33.31 -167.74)"/><path class="cls-2" d="M94.73,519.58a50,50,0,0,0,23.17,11.53l-5.22,7a54.09,54.09,0,0,1-22-13.15Z" transform="translate(-33.31 -167.74)"/><path class="cls-2" d="M326.31,490.13l.52,17a576.2,576.2,0,0,0-57.26,7h-.26l-.53-15.38A498.37,498.37,0,0,1,326.31,490.13Z" transform="translate(-33.31 -167.74)"/><path class="cls-3" d="M372.24,488.61a280.85,280.85,0,0,1,56.22,7,114.58,114.58,0,0,0-2.73,19.5,258,258,0,0,0-55-8.35A155.18,155.18,0,0,1,372.24,488.61Z" transform="translate(-33.31 -167.74)"/><path class="cls-3" d="M452.2,502.66a180.06,180.06,0,0,1,20.39,8.8l-13.26,16.13a180.62,180.62,0,0,0-21-8.63Z" transform="translate(-33.31 -167.74)"/></svg>