<svg id="Capa_1" data-name="Capa 1" xmlns="http://www.w3.org/2000/svg" viewBox="0 0 561.32 248.54"><defs><style>.cls-1{isolation:isolate;}.cls-2{fill:none;stroke:#17222e;stroke-miterlimit:10;stroke-width:2px;}.cls-3{fill:#17222e;}.cls-4{fill:#fbbe12;}.cls-5{fill:#e30613;}.cls-6{fill:#95c11f;}</style></defs><g class="cls-1"><path class="cls-2" d="M302.58,263.82a16.35,16.35,0,0,1-6.16-1.15,14.77,14.77,0,0,1-8.19-8.06,16.25,16.25,0,0,1,0-12.11,14.77,14.77,0,0,1,8.19-8.06,17.21,17.21,0,0,1,12.32,0,14.77,14.77,0,0,1,8.19,8.06,16.25,16.25,0,0,1,0,12.11,14.77,14.77,0,0,1-8.19,8.06A16.35,16.35,0,0,1,302.58,263.82Zm0-.82a15,15,0,0,0,5.79-1.11,14.13,14.13,0,0,0,7.76-7.65,15.24,15.24,0,0,0,0-11.37,13.93,13.93,0,0,0-3.09-4.58,14.15,14.15,0,0,0-4.67-3.07,15.79,15.79,0,0,0-11.58,0,14.15,14.15,0,0,0-4.67,3.07,13.93,13.93,0,0,0-3.09,4.58,15.11,15.11,0,0,0,0,11.37,14.13,14.13,0,0,0,7.76,7.65A14.93,14.93,0,0,0,302.58,263Zm9.94,6.05a8.08,8.08,0,0,1-2.29-.33,10.3,10.3,0,0,1-2.31-1A16.38,16.38,0,0,1,305.5,266a35.48,35.48,0,0,1-2.62-2.46l1.13-.22a22.29,22.29,0,0,0,2.91,2.7,11.93,11.93,0,0,0,2.86,1.65,7.58,7.58,0,0,0,2.74.54,7.87,7.87,0,0,0,6.27-3.07l.61.6A8.49,8.49,0,0,1,312.52,269.05Z" transform="translate(-47.5 -24.66)"/><path class="cls-2" d="M331.85,263.69l14-30.26h.86l14.05,30.26h-1l-13.71-29.57h.43l-13.7,29.57Zm4.62-9.12.43-.83h18.81l.43.83Z" transform="translate(-47.5 -24.66)"/><path class="cls-2" d="M376.42,241.21a9.92,9.92,0,0,1,4.75,1.06,7.3,7.3,0,0,1,3.09,3.13,10.69,10.69,0,0,1,1.1,5.1v13.19h-.86V250.5q0-4.16-2.12-6.31a7.9,7.9,0,0,0-5.92-2.16,10.21,10.21,0,0,0-5.06,1.19,8,8,0,0,0-3.24,3.33,10.55,10.55,0,0,0-1.12,5v12.15h-.87V241.34H367v6.35l-.09-.13a9.09,9.09,0,0,1,3.41-4.65A10.34,10.34,0,0,1,376.42,241.21Z" transform="translate(-47.5 -24.66)"/><path class="cls-2" d="M400.8,263.82a10.59,10.59,0,0,1-4.28-.78,6,6,0,0,1-2.7-2.21,5.86,5.86,0,0,1-.93-3.28,6,6,0,0,1,.75-3,5.49,5.49,0,0,1,2.49-2.21,10.91,10.91,0,0,1,4.71-.84h9v.82h-9q-3.81,0-5.43,1.45a4.74,4.74,0,0,0-1.62,3.7,4.84,4.84,0,0,0,1.86,4,8.06,8.06,0,0,0,5.19,1.5,9,9,0,0,0,5.34-1.5,9.18,9.18,0,0,0,3.17-4.21l.44.56a8.63,8.63,0,0,1-3.18,4.32A9.56,9.56,0,0,1,400.8,263.82Zm8.51-.13V249.08a7.06,7.06,0,0,0-1.81-5.28,7.26,7.26,0,0,0-5.28-1.77,11.94,11.94,0,0,0-4.58.86,11.78,11.78,0,0,0-3.54,2.25l-.61-.6a11.94,11.94,0,0,1,3.89-2.42,12.84,12.84,0,0,1,4.8-.91,8.17,8.17,0,0,1,5.94,2,7.74,7.74,0,0,1,2.06,5.83v14.66Z" transform="translate(-47.5 -24.66)"/><path class="cls-2" d="M419.86,263.69V231.61h.87v32.08Z" transform="translate(-47.5 -24.66)"/><path class="cls-2" d="M431.1,235.15A1.16,1.16,0,0,1,430,234a1.05,1.05,0,0,1,.34-.8,1.13,1.13,0,0,1,.78-.32,1.11,1.11,0,0,1,.8.32,1.08,1.08,0,0,1,.33.8,1.1,1.1,0,0,1-.33.78A1.05,1.05,0,0,1,431.1,235.15Zm-.43,28.54V241.34h.86v22.35Z" transform="translate(-47.5 -24.66)"/><path class="cls-2" d="M437.5,242.16v-.82h12.75v.82Zm9.73,21.66a5.17,5.17,0,0,1-4-1.52,5.6,5.6,0,0,1-1.39-4V236.45h.87v21.66a5.16,5.16,0,0,0,1.16,3.63,4.44,4.44,0,0,0,3.42,1.26,5.23,5.23,0,0,0,3.72-1.39l.6.61a4.6,4.6,0,0,1-2,1.21A7.62,7.62,0,0,1,447.23,263.82Z" transform="translate(-47.5 -24.66)"/><path class="cls-2" d="M456.78,272.2a7.17,7.17,0,0,1-2.7-.49,5.82,5.82,0,0,1-2.14-1.5l.65-.69a6.09,6.09,0,0,0,1.9,1.41,5.6,5.6,0,0,0,2.33.45,4.9,4.9,0,0,0,2.94-.93,8.63,8.63,0,0,0,2.47-3.43l1.64-3.64.21-.3,9.9-21.74h1l-11.89,25.93a11.12,11.12,0,0,1-1.79,2.9,6.08,6.08,0,0,1-2.08,1.56A6.21,6.21,0,0,1,456.78,272.2Zm7.26-8-10.5-22.82h1l9.9,21.74Z" transform="translate(-47.5 -24.66)"/><path class="cls-2" d="M488.55,263.82a11.07,11.07,0,0,1-5.64-1.45,10.44,10.44,0,0,1-3.91-4,12.8,12.8,0,0,1,0-11.76,10.31,10.31,0,0,1,3.91-4,11.81,11.81,0,0,1,10.16-.51,8.85,8.85,0,0,1,3.52,2.72l-.6.65a7.89,7.89,0,0,0-3.24-2.62,10.5,10.5,0,0,0-4.2-.84,10.16,10.16,0,0,0-5.18,1.32,9.43,9.43,0,0,0-3.61,3.67,12,12,0,0,0,0,10.94,9.55,9.55,0,0,0,3.61,3.69,10,10,0,0,0,5.18,1.35,10.19,10.19,0,0,0,4.2-.87,8.24,8.24,0,0,0,3.24-2.59l.6.64a8.87,8.87,0,0,1-3.52,2.73A11.33,11.33,0,0,1,488.55,263.82Z" transform="translate(-47.5 -24.66)"/><path class="cls-2" d="M515.36,263.69V233.43h11.45a17.19,17.19,0,0,1,8.39,2,14.3,14.3,0,0,1,5.58,5.38,16.29,16.29,0,0,1,0,15.57,14.3,14.3,0,0,1-5.58,5.38,17.2,17.2,0,0,1-8.39,2Zm.86-.82h10.51a16.58,16.58,0,0,0,8-1.86,13.36,13.36,0,0,0,5.27-5.08,15.53,15.53,0,0,0,0-14.74,13.29,13.29,0,0,0-5.27-5.08,16.58,16.58,0,0,0-8-1.86H516.22Z" transform="translate(-47.5 -24.66)"/><path class="cls-2" d="M556,263.82a10.64,10.64,0,0,1-4.29-.78,6,6,0,0,1-2.7-2.21,5.86,5.86,0,0,1-.93-3.28,6,6,0,0,1,.76-3,5.39,5.39,0,0,1,2.49-2.21,10.91,10.91,0,0,1,4.71-.84H565v.82h-9q-3.81,0-5.43,1.45a4.74,4.74,0,0,0-1.62,3.7,4.84,4.84,0,0,0,1.86,4A8.06,8.06,0,0,0,556,263a8.91,8.91,0,0,0,5.33-1.5,9.13,9.13,0,0,0,3.18-4.21l.43.56a8.55,8.55,0,0,1-3.17,4.32A9.59,9.59,0,0,1,556,263.82Zm8.51-.13V249.08a7.06,7.06,0,0,0-1.81-5.28,7.26,7.26,0,0,0-5.28-1.77,11.75,11.75,0,0,0-8.13,3.11l-.6-.6a11.83,11.83,0,0,1,3.89-2.42,12.84,12.84,0,0,1,4.8-.91,8.19,8.19,0,0,1,5.94,2,7.74,7.74,0,0,1,2.06,5.83v14.66Z" transform="translate(-47.5 -24.66)"/><path class="cls-2" d="M571.12,242.16v-.82h12.76v.82Zm9.73,21.66a5.17,5.17,0,0,1-4-1.52,5.65,5.65,0,0,1-1.39-4V236.45h.87v21.66a5.11,5.11,0,0,0,1.17,3.63,4.4,4.4,0,0,0,3.41,1.26,5.23,5.23,0,0,0,3.72-1.39l.6.61a4.56,4.56,0,0,1-2,1.21A7.73,7.73,0,0,1,580.85,263.82Z" transform="translate(-47.5 -24.66)"/><path class="cls-2" d="M597.62,263.82a10.59,10.59,0,0,1-4.28-.78,6,6,0,0,1-2.7-2.21,6.2,6.2,0,0,1-.17-6.24,5.42,5.42,0,0,1,2.48-2.21,11,11,0,0,1,4.72-.84h8.94v.82h-9c-2.54,0-4.34.48-5.42,1.45a4.74,4.74,0,0,0-1.62,3.7,4.83,4.83,0,0,0,1.85,4,8.06,8.06,0,0,0,5.19,1.5,9,9,0,0,0,5.34-1.5,9.13,9.13,0,0,0,3.18-4.21l.43.56a8.57,8.57,0,0,1-3.18,4.32A9.54,9.54,0,0,1,597.62,263.82Zm8.52-.13V249.08a7.06,7.06,0,0,0-1.82-5.28,7.25,7.25,0,0,0-5.27-1.77,11.9,11.9,0,0,0-4.58.86,11.71,11.71,0,0,0-3.55,2.25l-.6-.6a11.83,11.83,0,0,1,3.89-2.42,12.75,12.75,0,0,1,4.79-.91,8.2,8.2,0,0,1,6,2,7.74,7.74,0,0,1,2,5.83v14.66Z" transform="translate(-47.5 -24.66)"/></g><line class="cls-2" x1="206.07" y1="199.79" x2="561.32" y2="199.79"/><path class="cls-3" d="M66.55,153c-5.27,1.51-10.54,3.58-14.86,7a17.18,17.18,0,0,0-3,3.2,6.14,6.14,0,0,0,1,8.28c3.19,3.2,7.15,4.14,11.47,3.77a4.25,4.25,0,0,0,2.45-1.13,13,13,0,0,1,3-2.21,57.28,57.28,0,0,1,.54-10.63c.4-2.6.84-5.46,1.48-8l.18-.77A18.54,18.54,0,0,0,66.55,153ZM198.63,39.74c-.56,0-1.13-.19-1.69-.19-6.59-.57-12,1.5-15.81,7.33-9.22,14.3-19.56,27.85-29.72,41.59-8.66,11.85-17.31,23.7-26.16,35.56-5.64,7.52-11.29,15.24-16.74,22.95a3.6,3.6,0,0,1-3,1.7c-7.34.56-14.68.94-21.83,1.5a114.37,114.37,0,0,0-14.62,2.21c-.16,1.14-.32,2.26-.43,2.9A99.52,99.52,0,0,0,68,165.36a50.54,50.54,0,0,0,.2,5.64l1.17-.54a123.32,123.32,0,0,1,21.83-7.15,24.18,24.18,0,0,1,5.27-.94,5.09,5.09,0,0,1-1.13,2.26c-6.3,8.4-12.69,16.72-19,25.07a23.55,23.55,0,0,0,10.88,5.4c8.08-10.79,16.09-21.57,23.91-32.54a3.73,3.73,0,0,1,3-1.88c6.59-.38,13.36-.38,20-.38a167,167,0,0,1,16.74.57l5.83.56c1.51.38,1.51.56,1.51,2.07,0,1.13-.19,2.07-.19,3.2-.1,4.45-.15,8.85,0,13.26a236.85,236.85,0,0,1,27-4.05c0-1.23,0-2.48.06-3.72,0-4.7.18-9.21.56-13.92.38-6.77.94-13.55,1.51-20.32,1.12-10.91,3-22,4.7-32.93,2.44-13.54,5.46-27.09,8.47-40.64a136.63,136.63,0,0,0,3.19-17.5C203.71,42.93,202.4,40.86,198.63,39.74ZM173,80c-2.82,9.41-4.89,18.81-6.77,28.22-1.88,10-4,19.76-5.46,29.92-.37,3.57-.94,7.15-1.31,10.91a2.43,2.43,0,0,0-.19,1.13c-.38,1.69-.57,1.69-2.26,1.32a131.38,131.38,0,0,0-25.78-2.82c-2.44-.19-5.08-.19-7.52-.38-.57,0-1.13.19-1.32-.38-.38-.56.19-.94.57-1.31,4.89-6.78,9.78-13.36,14.67-20.14,11.1-15.43,22.2-30.85,33.68-46.09.56-.76,1.13-1.51,1.88-2.45A2.51,2.51,0,0,1,173,80Zm64.73,156.73a12.09,12.09,0,0,0-4.52-.38c-1.88.19-3.76,1-5.64,1.32-3.39.57-7,.94-10.54,1.51a14.62,14.62,0,0,1-9.59-2.26,27.69,27.69,0,0,1-7.34-6.77c-4.89-5.84-7.9-12.61-10.16-19.76a106.19,106.19,0,0,1-4.73-26.45,268.77,268.77,0,0,0-26.83,3.28h0c.15,1.75.33,3.51.56,5.28,1.32,8.66,3.2,17.31,6.59,25.41,3.57,8.46,8.28,16.18,15.24,22.39a37.56,37.56,0,0,0,25,10c4.33.19,8.47-.57,12.61-1.13A72.07,72.07,0,0,0,235,244.63a10.72,10.72,0,0,0,4-2.44c2-1.88,1.59-4.33-1.23-5.46ZM74.45,192.26q-4,5.28-7.9,10.6c-4.52,6.4-9.22,12.8-13.36,19.38-.38.76-.75,1.32-1.13,2.07-.56,1.7-.19,2.83,1.51,3.58a6.27,6.27,0,0,0,3.2.75,10.5,10.5,0,0,0,8.46-4.33c4.33-5.64,8.66-11.47,13-17.12l6.55-8.76A25.44,25.44,0,0,1,74.45,192.26Z" transform="translate(-47.5 -24.66)"/><path class="cls-3" d="M275.4,25.81a20,20,0,0,0-12.8-.19,13.51,13.51,0,0,0-4.89,3,36.25,36.25,0,0,0-3.39,4.52c-2.25,4-4.51,8.09-6.58,12.23-3.2,6.58-6.21,13.17-8.84,20.13-3,7.72-6.4,15.24-9,23.14-4.52,12.8-8.1,26-11.67,39-2.26,7.72-3.76,15.62-6.21,23.33a167.72,167.72,0,0,0-5.43,24.26A131.67,131.67,0,0,1,233,178.46a156.39,156.39,0,0,1,5-19.63c6-20.14,12.41-40.08,19-60,4-11.85,8.28-23.7,13.17-35.56,3-7.15,6.21-14.3,8.47-22a45.33,45.33,0,0,0,1.88-7.15C281,30,279.35,27.32,275.4,25.81ZM237.61,189.45c-.68.73-1.38,1.44-2.1,2.12a27.15,27.15,0,0,1-4.14,3.58,7,7,0,0,1,0-2.82c.09-1.53.18-3.1.31-4.69a120.35,120.35,0,0,0-25.87-3.94A34.92,34.92,0,0,0,209,199.29a12.28,12.28,0,0,0,4.52,5.83c5.64,3.95,11.66,4.33,18.06,2.26a24.6,24.6,0,0,0,10.91-7.9c1.67-2,3.32-4,5-6A86.32,86.32,0,0,0,237.61,189.45Zm33.84-35.51a9,9,0,0,0-3.06,1.08c-.24.13-.48.28-.71.43a16.4,16.4,0,0,0-3.76,3.39c-6.58,7.33-13,14.67-19.19,22.2l-.63.75a85.2,85.2,0,0,1,9.57,4.13q4.4-5.35,8.75-10.71.94-1.12,1.86-2.28c3.09-3.81,6.07-7.76,9.05-11.84a9.51,9.51,0,0,0,1.69-3.38,3,3,0,0,0-3.57-3.77Z" transform="translate(-47.5 -24.66)"/><path class="cls-3" d="M368.24,164c-3.13.18-6.28.44-9.42.77-5.11,4-10.29,8-15.39,12A120.21,120.21,0,0,1,316,193.36a57.07,57.07,0,0,1-13.55,4.32c-2.63.38-4.33-.56-5.83-2.63a18.61,18.61,0,0,1-1.75-3.69,61.5,61.5,0,0,0-10.36,15,36.32,36.32,0,0,0,20.76,1.45,54.3,54.3,0,0,0,22-9.22c12.23-8.09,23.89-16.74,35.37-25.77l3.75-3c2.35-1.94,4.66-3.93,6.91-6C371.62,163.85,369.93,163.91,368.24,164Zm-20.67-48.55c-3-2.82-6.78-4-10.73-4.89a43.18,43.18,0,0,0-15.61-.94,52.88,52.88,0,0,0-19.38,6,68,68,0,0,0-18.25,14.49A78.39,78.39,0,0,0,268.39,155c-.86,2.25-1.62,4.56-2.29,6.91a44.16,44.16,0,0,0-1.82,11c0,.79-.06,1.57-.06,2.36a40.06,40.06,0,0,0,2.63,14.11,29.13,29.13,0,0,0,8.79,12,67.75,67.75,0,0,1,17.14-22.28l.25-.21a78.22,78.22,0,0,1,.73-8.08c.18-.94.56-1.51,1.69-1.32a55.43,55.43,0,0,0,10.62.3,112.59,112.59,0,0,1,31.75-12,52.94,52.94,0,0,0,6.36-6.94,47.88,47.88,0,0,0,7.9-15.8,22.38,22.38,0,0,0,1.32-7.9c0-4.87-2.26-8.63-5.83-11.64Zm-21.83,20.32a45.92,45.92,0,0,1-11.47,16.56,19.61,19.61,0,0,1-10.73,5.45c-1.5.19-3,.57-4.51.76-1.32.18-1.51-.19-.95-1.32a51.09,51.09,0,0,1,3.77-7.9,71.13,71.13,0,0,1,12.6-16.56,44.16,44.16,0,0,1,9.6-6.77,2.66,2.66,0,0,1,1.32-.38c.56-.38,1.13-.19,1.31.75a10.69,10.69,0,0,0,.38,2.45,41.2,41.2,0,0,1-1.32,7Z" transform="translate(-47.5 -24.66)"/><path class="cls-3" d="M467.61,114.52a14.14,14.14,0,0,0-6.4-3.39,26.26,26.26,0,0,0-16.55.57C436.75,114.33,430,119,424,124.87a258.28,258.28,0,0,0-19.38,21.26c-.19.19-.38.56-.75.56-.38-.19-.19-.37,0-.75,2.63-5.83,4.7-12.23,7.15-18.25a34.62,34.62,0,0,0,2.63-8.84,5.34,5.34,0,0,0-1.69-4.52,6.72,6.72,0,0,0-2.26-1.5,22.34,22.34,0,0,0-19.57,0A8,8,0,0,0,386,117c-1.5,3.2-3,6.59-4.32,9.79q-5.28,13.42-9.94,27c4.88-.15,9.73-.16,14.52-.06,10,.33,20,1.19,29.91,2.46a215.33,215.33,0,0,1,22.33-24.53c.37-.19.75-.94,1.5-.75.19.75-.19,1.13-.37,1.69a62.23,62.23,0,0,1-2.26,6.21c-2.68,6.37-4.92,12.92-7.08,19.46q7.92,1.3,15.75,2.9,5,1.07,10,2.08c1.09-2.7,2.19-5.38,3.29-8.07,2.82-6.77,5.83-13.36,8.09-20.51a49.94,49.94,0,0,0,2.64-12.79C470.24,119,469.68,116.4,467.61,114.52Zm10.76,60.69c-3.12-.36-6.24-.78-9.36-1.23-3.78,4.33-7.55,8.65-11.37,13a117.52,117.52,0,0,1-9.79,9.41c-.56.37-.94.94-1.88.75a10.17,10.17,0,0,1,.19-3.39,81.3,81.3,0,0,1,4.33-16.37c.75-2,1.52-4,2.29-6-8.49-1.45-17-3-25.47-4.26l-.15.45a77.75,77.75,0,0,0-4,25.4A18.21,18.21,0,0,0,430,206.34c5.83,4.7,14.68,4.7,20.7.56a43.51,43.51,0,0,0,7.33-7.15c4.33-5.45,9-10.72,13.74-16q3.33-3.74,6.52-7.53c.27-.31.53-.63.79-.94Zm10.69-19.11a10.5,10.5,0,0,0-4.7,1.51,15,15,0,0,0-2.81,2.13,27.48,27.48,0,0,0-2.65,2.95c-1.2,1.36-2.39,2.71-3.57,4.07,1.42.23,2.84.44,4.26.64q2.69.39,5.37.72c1.51-1.87,3-3.75,4.48-5.62a11.09,11.09,0,0,0,1.88-3.2c.75-2.07-.19-3.2-2.26-3.2ZM397.68,164c-7.71-.41-16-.57-24.4-.27-1.67.06-3.33.14-5,.24q-.94,2.9-1.87,5.79-1.23,3.87-2.43,7.75a88.15,88.15,0,0,0-4.33,20.88c-.37,5.09,1.88,8.28,6.59,9.41,5.27,1.13,11.66.57,16-5.64,2.63-3.95,5.46-7.9,8.28-11.67,6.35-8.6,12.59-17.21,19-25.66C405.53,164.49,401.61,164.2,397.68,164Z" transform="translate(-47.5 -24.66)"/><path class="cls-3" d="M573.46,110.16a16.73,16.73,0,0,0-9.7,2.67,14.35,14.35,0,0,0-4,4.32c-.56.76-1.13,1.7-1.69,2.64-.75,1.13-.94,1.31-1.88.19-.38-.38-.57-.76-.94-1.13A20.4,20.4,0,0,0,543,112.07a59.08,59.08,0,0,0-17.31-.37,41.62,41.62,0,0,0-20,8.84A76,76,0,0,0,495.27,132a66.28,66.28,0,0,0-8.66,13.92,132.42,132.42,0,0,0-5.06,13.8c-.76,2.53-1.42,5.08-2,7.66q2.68.39,5.37.72a198,198,0,0,0,23.84,1.58,101.17,101.17,0,0,1,3.78-13.79A114.2,114.2,0,0,1,522,135.78a44.64,44.64,0,0,1,8.27-9.6c.38-.37.76-.56,1.13-.94,4.33-2.82,6.4-2.44,9.22,1.7a40.07,40.07,0,0,1,3,5.64c1.13,2.26,2.07,4.52,5.08,5.83-4.7,3-7,7.15-9.41,11.11q-6.13,9.63-12.32,19.06c11.48-1.57,22.75-5.1,31.75-12.53C572.12,144.81,575.33,127.14,573.46,110.16Zm34.7,42.18c-1.13-.94-2.26-.75-3.58-.38a12.47,12.47,0,0,0-6.77,4.89c-6.21,8.09-12.42,16.37-18.63,24.46a84.25,84.25,0,0,1-11.29,13.36,9.6,9.6,0,0,1-2.63,2.07c-.75.57-1.13.38-1.32-.56a21.64,21.64,0,0,1-.37-3.2c-.19-7.15,1.31-14.11,3.38-20.89,1.7-6.39,4.33-12.23,6-18.62a65.79,65.79,0,0,1,2.45-7.91c2.07-5.26,4.14-10.53,6-15.8.94-2.26,1.88-4.7,2.82-7.15a14.21,14.21,0,0,0,.94-5.08,5.79,5.79,0,0,0-2.63-5.08,12,12,0,0,0-5.83-2.07c-.58-.07-1.15-.12-1.72-.16a66.6,66.6,0,0,1-.66,28.14c-6.27,24.17-29.28,34.41-52.08,37.27q-1.44,2.19-2.93,4.37A87.3,87.3,0,0,1,509,192.79c-.56.57-.94,1.51-1.69,1.13-.94-.19-.57-1.13-.75-1.88-.76-2.82-.19-5.65.18-8.47.23-2.3.52-4.58.85-6.85A200,200,0,0,1,479,175.29l-.69-.08c0,.34-.07.67-.1,1,0,.5-.09,1-.12,1.51a32.52,32.52,0,0,0,1.12,12.79c2.26,7,6.21,12.61,13.55,15.06a27.83,27.83,0,0,0,13,1.12,23.22,23.22,0,0,0,12.42-5.45,38.3,38.3,0,0,0,6-6.4c3.77-5.27,7.34-10.35,11.1-15.62,1.7-2.44,3.39-5.08,5.08-7.52.19,0,.38,0,.38.19-.19,2.25-.19,4.7-.38,7.15a36.79,36.79,0,0,0,.94,13.54c2.07,7,6.4,11.67,13.36,13.55a20.93,20.93,0,0,0,20.89-5.46c3.2-3,5.64-6.77,8.28-10.35,7-9.21,14.11-18.25,20.69-27.84a35.49,35.49,0,0,0,3.77-6.4,3.45,3.45,0,0,0-.15-3.74Z" transform="translate(-47.5 -24.66)"/><path class="cls-4" d="M68.57,153.26l.93-4c-.23,1.36-.67,4.71-.89,6A98.18,98.18,0,0,0,68,165.4a53.46,53.46,0,0,0,.24,5.66l-1.64.84a57.17,57.17,0,0,1,.54-10.62A75.68,75.68,0,0,1,68.57,153.26Z" transform="translate(-47.5 -24.66)"/><path class="cls-4" d="M76.33,189.76a23.39,23.39,0,0,0,10.87,5.41l-2.45,3.28a25.47,25.47,0,0,1-10.32-6.17Z" transform="translate(-47.5 -24.66)"/><path class="cls-4" d="M185,175.94l.24,8a269.56,269.56,0,0,0-26.87,3.28h-.12L158,180A236.36,236.36,0,0,1,185,175.94Z" transform="translate(-47.5 -24.66)"/><path class="cls-5" d="M206.55,175.23a131.67,131.67,0,0,1,26.38,3.28,53.33,53.33,0,0,0-1.28,9.15,120.59,120.59,0,0,0-25.82-3.92A71.3,71.3,0,0,1,206.55,175.23Z" transform="translate(-47.5 -24.66)"/><path class="cls-5" d="M244.07,181.82a85.2,85.2,0,0,1,9.57,4.13l-6.22,7.57a85.56,85.56,0,0,0-9.87-4.05Z" transform="translate(-47.5 -24.66)"/><path class="cls-5" d="M294.83,191.39a61.53,61.53,0,0,0-10.37,15,29.5,29.5,0,0,1-8.78-5.14h0a68,68,0,0,1,17.09-22.17l.27-.23A35.6,35.6,0,0,0,294.83,191.39Z" transform="translate(-47.5 -24.66)"/><path class="cls-5" d="M306.12,169.76a112.38,112.38,0,0,1,31.58-11.92C327,164.31,316.32,170.15,306.12,169.76Z" transform="translate(-47.5 -24.66)"/><path class="cls-6" d="M386.2,153.74c10,.34,20,1.19,29.92,2.46l-6.66,8.71c-3.92-.38-7.85-.67-11.79-.83a248.38,248.38,0,0,0-38.86.73l12.39-9.47.52-1.54C376.58,153.65,381.42,153.64,386.2,153.74Z" transform="translate(-47.5 -24.66)"/><path class="cls-6" d="M446,161.18q5,1.06,10,2.09l-3.26,8.15c-8.43-1.44-16.86-2.94-25.3-4.22l2.78-8.91C435.52,159.15,440.77,160.13,446,161.18Z" transform="translate(-47.5 -24.66)"/><path class="cls-6" d="M475.3,166.79a217.63,217.63,0,0,0,33.42,2.94,39.54,39.54,0,0,0-1.27,7A223.94,223.94,0,0,1,469,174Z" transform="translate(-47.5 -24.66)"/><path class="cls-6" d="M573.45,110.18c1.87,17-1.33,34.67-14.74,45.91-9,7.42-20.27,11-31.76,12.52h0l-4.69,7.06c22.8-2.86,45.83-13.09,52.1-37.28a66.54,66.54,0,0,0,.66-28.13s-1.93-8-3.31-11.12Z" transform="translate(-47.5 -24.66)"/></svg>