<svg id="ejUOD6iA08s1" xmlns="http://www.w3.org/2000/svg" xmlns:xlink="http://www.w3.org/1999/xlink" viewBox="0 0 401.1 133.1" shape-rendering="geometricPrecision" text-rendering="geometricPrecision"><style><![CDATA[#ejUOD6iA08s8_tr {animation: ejUOD6iA08s8_tr__tr 6000ms linear infinite normal forwards}@keyframes ejUOD6iA08s8_tr__tr { 0% {transform: translate(156.500004px,43.15px) rotate(0deg)} 100% {transform: translate(156.500004px,43.15px) rotate(360.395073deg)}}]]></style><path d="M40.8,50.4h-7v22.1h-14.2v-58.6h21.5C53.9,13.9,64,18.5,64,32c.1,13.5-10.9,18.4-23.2,18.4ZM40,25.3h-6.2v13.8h6C45.1,39.1,50,37.5,50,32s-5-6.7-10-6.7Z" fill="#16222e"/><path d="M104,72.5L91.3,49.3h-4.8v23.3h-13.9v-58.7h22.4c11.3,0,22.4,4.3,22.4,17.7c0,7.9-4.6,13.5-12.2,15.8l15.3,25.1h-16.5ZM94,25.3h-7.6v13.7h6.7c4.6,0,10.3-1.2,10.3-7.1c0-5.5-5.2-6.6-9.4-6.6Z" fill="#16222e"/><path d="M219.9,72.5h-21.9v-58.6h21.2c16.6,0,33.5,7,33.5,29.2.1,20.6-16.7,29.4-32.8,29.4Zm-1-46.5h-7v34.3h6.7c10.1,0,19.5-4.1,19.5-17.2s-9.5-17.1-19.2-17.1v0Z" fill="#16222e"/><path d="M262.1,72.5v-58.6h39.4v12h-25.8v11h24.4v11.4h-24.4v12.2h27.3v12.1h-40.9Z" fill="#16222e"/><path d="M343.8,72.5L331.1,49.2h-4.8v23.3h-13.9v-58.6h22.4c11.3,0,22.4,4.3,22.4,17.7c0,7.9-4.6,13.5-12.2,15.8l15.3,25.1h-16.5Zm-10-47.2h-7.5v13.7h6.7c4.5,0,10.3-1.2,10.3-7.1-.1-5.5-5.3-6.6-9.5-6.6v0Z" fill="#16222e"/><path d="M367.3,72.5v-58.6h14.2v58.6h-14.2Z" fill="#16222e"/><g id="ejUOD6iA08s8_tr" transform="translate(156.500004,43.15) rotate(0)"><g transform="translate(-156.500004,-43.149999)"><circle r="6.4" transform="translate(156.7 67.6)" fill="#95c11f" stroke="#95c11f" stroke-width="2" stroke-miterlimit="10"/><circle r="6.4" transform="translate(139.4 60.4)" fill="#95c11f" stroke="#95c11f" stroke-width="2" stroke-miterlimit="10"/><circle r="6.4" transform="translate(132.1 43.1)" fill="#95c11f" stroke="#95c11f" stroke-width="2" stroke-miterlimit="10"/><circle r="6.4" transform="translate(139.2 25.8)" fill="#95c11f" stroke="#95c11f" stroke-width="2" stroke-miterlimit="10"/><circle r="6.4" transform="translate(156.7 18.7)" fill="#e30613" stroke="#e30613" stroke-width="2" stroke-miterlimit="10"/><circle r="6.4" transform="translate(174 25.9)" fill="#e30613" stroke="#e30613" stroke-width="2" stroke-miterlimit="10"/><circle r="6.4" transform="translate(180.9 43.1)" fill="#fcbf0a" stroke="#fcbf0a" stroke-width="2" stroke-miterlimit="10"/><circle r="6.4" transform="translate(173.7 60.3)" fill="#fcbf0a" stroke="#fcbf0a" stroke-width="2" stroke-miterlimit="10"/></g></g><path d="M26,113.5v-23.1h9.3c4.6,0,7.2,3.2,7.2,7s-2.6,7-7.2,7h-6.4v9.2l-2.9-.1ZM39.5,97.4c.1-2.4-1.8-4.3-4.2-4.4-.1,0-.3,0-.4,0h-6.1v8.8h6.1c2.4.2,4.4-1.6,4.6-4c0-.1,0-.3,0-.4Z" fill="#575756"/><path d="M46.2,113.5v-16.7h2.6v2.7c1.3-1.8,3.4-2.9,5.6-3v2.7c-.3,0-.7-.1-1-.1-1.8.2-3.5,1.1-4.6,2.7v11.8l-2.6-.1Z" fill="#575756"/><path d="M56.6,105.1c0-4.8,3.2-8.8,8.3-8.8s8.3,3.9,8.3,8.8-3.2,8.8-8.3,8.8-8.3-3.9-8.3-8.8Zm13.8,0c0-3.4-2-6.4-5.5-6.4s-5.5,3-5.5,6.4s2,6.5,5.5,6.5s5.5-3.1,5.5-6.5Z" fill="#575756"/><path d="M76,111.3l1.3-1.9c1.4,1.5,3.4,2.4,5.5,2.4c2.6,0,4-1.2,4-2.9c0-4-10.3-1.6-10.3-7.8c0-2.6,2.2-4.8,6.2-4.8c2.3-.1,4.6.8,6.2,2.4l-1.2,1.8c-1.3-1.4-3.1-2.2-5-2.1-2.3,0-3.7,1.1-3.7,2.6c0,3.6,10.3,1.2,10.3,7.7c0,2.8-2.2,5-6.5,5-2.6.3-5-.7-6.8-2.4Z" fill="#575756"/><path d="M96.1,111v8.9h-2.6v-23.1h2.5v2.5c1.3-1.8,3.4-2.9,5.6-2.9c4.4,0,7.4,3.3,7.4,8.8s-3,8.8-7.4,8.8c-2.1-.1-4.2-1.2-5.5-3Zm10.3-5.8c0-3.7-2-6.4-5.4-6.4-2,0-3.9,1-5,2.7v7.5c1.1,1.7,3,2.7,5,2.7c3.4-.1,5.4-2.9,5.4-6.5v0Z" fill="#575756"/><path d="M112.3,105.1c0-4.8,3.5-8.8,8.2-8.8c5,0,8,3.9,8,9v.6h-13.5c0,3.2,2.7,5.8,5.9,5.8c0,0,0,0,.1,0c1.9,0,3.8-.8,5.2-2.2l1.2,1.7c-1.8,1.7-4.2,2.7-6.6,2.6-5,.1-8.5-3.5-8.5-8.7Zm8.2-6.6c-3,0-5.4,2.5-5.5,5.5h11c.1-3-2.3-5.4-5.3-5.5-.1,0-.2,0-.2,0Z" fill="#575756"/><path d="M131.8,105.1c0-5,3.4-8.8,8.3-8.8c2.4-.1,4.7,1,6.1,2.9l-1.7,1.6c-1-1.4-2.6-2.2-4.3-2.2-3.5,0-5.8,2.7-5.8,6.4s2.2,6.5,5.8,6.5c1.7,0,3.3-.8,4.3-2.2l1.7,1.6c-1.4,1.9-3.7,3-6.1,2.9-5,.1-8.3-3.7-8.3-8.7Z" fill="#575756"/><path d="M150.4,110v-10.9h-2.8v-2.3h2.8v-4.6h2.6v4.6h3.4v2.2h-3.4v10.4c0,1.2.6,2.2,1.7,2.2.7,0,1.3-.3,1.8-.7l.8,2c-.8.8-2,1.1-3.1,1.1-2.6-.1-3.8-1.5-3.8-4Z" fill="#575756"/><path d="M159.6,92.7c0-1,.8-1.8,1.8-1.8s1.7.8,1.7,1.7c0,0,0,0,0,0c0,.9-.7,1.7-1.7,1.7c0,0,0,0,0,0-1,.1-1.8-.7-1.8-1.6c0,0,0,0,0,0Zm.4,20.8v-16.7h2.6v16.7h-2.6Z" fill="#575756"/><path d="M172.3,113.5l-6.9-16.7h2.8l5.5,13.7l5.6-13.7h2.8l-6.9,16.7h-2.9Z" fill="#575756"/><path d="M195.2,113.5v-1.9c-1.4,1.5-3.4,2.4-5.5,2.3-3.1.1-5.7-2.2-5.8-5.3c0-.1,0-.2,0-.2c0-3.8,3-5.5,5.8-5.5c2.1-.1,4.1.7,5.5,2.2v-3c0-2.2-1.8-3.5-4.2-3.5-2,0-3.8.8-5.1,2.3l-1.2-1.8c1.7-1.8,4.2-2.8,6.7-2.8c3.6,0,6.5,1.6,6.5,5.6v11.5l-2.7.1Zm0-3.5v-3.2c-1.1-1.3-2.8-2.1-4.6-2-2.5,0-4.1,1.5-4.1,3.6s1.7,3.7,4.1,3.7c1.8,0,3.5-.7,4.6-2.1v0Z" fill="#575756"/><path d="M224.1,113.5v-2.5c-1.3,1.8-3.4,2.9-5.6,2.9-4.4,0-7.4-3.3-7.4-8.8s3.1-8.8,7.4-8.8c2.2,0,4.3,1.1,5.6,2.9v-8.9h2.6v23.1h-2.6Zm0-4.6v-7.5c-1.1-1.7-3-2.7-5-2.7-3.4,0-5.4,2.8-5.4,6.5s2,6.4,5.4,6.4c2,0,3.9-1,5-2.7Z" fill="#575756"/><path d="M230.9,105.1c0-4.8,3.5-8.8,8.2-8.8c5.1,0,8,3.9,8,9v.6h-13.5c0,3.2,2.7,5.8,5.9,5.8c0,0,0,0,.1,0c1.9,0,3.8-.8,5.2-2.2l1.2,1.7c-1.8,1.7-4.2,2.7-6.6,2.6-4.9.1-8.5-3.5-8.5-8.7Zm8.2-6.6c-3,.1-5.4,2.5-5.5,5.5h11c.1-3-2.3-5.5-5.3-5.5c0,0-.1,0-.2,0v0Z" fill="#575756"/><path d="M273.8,113.5l-5.9-9.2h-4.6v9.2h-2.9v-23.1h9.3c4.2,0,7.3,2.7,7.3,7c.2,3.5-2.5,6.5-6,6.7l6.2,9.4h-3.4Zm.2-16.1c0-2.4-1.8-4.3-4.2-4.4-.1,0-.3,0-.4,0h-6v8.8h6c2.4.2,4.5-1.6,4.7-4-.1-.1-.1-.3-.1-.4v0Z" fill="#575756"/><path d="M280.9,92.7c0-1,.8-1.8,1.8-1.8s1.7.8,1.7,1.7c0,0,0,0,0,0c0,.9-.7,1.7-1.7,1.7c0,0,0,0,0,0-1,.1-1.8-.7-1.8-1.6c0,0,0,0,0,0Zm.5,20.8v-16.7h2.6v16.7h-2.6Z" fill="#575756"/><path d="M288.2,105.1c0-4.8,3.5-8.8,8.2-8.8c5,0,8,3.9,8,9v.6h-13.5c0,3.2,2.7,5.8,5.9,5.8c0,0,0,0,.1,0c1.9,0,3.8-.8,5.2-2.2l1.2,1.7c-1.8,1.7-4.2,2.7-6.6,2.6-5,.1-8.5-3.5-8.5-8.7Zm8.2-6.6c-3.6,0-5.3,3-5.5,5.5h11c.1-3-2.3-5.5-5.3-5.5-.1,0-.1,0-.2,0Z" fill="#575756"/><path d="M307.2,111.3l1.3-1.9c1.4,1.5,3.4,2.4,5.5,2.4c2.6,0,4-1.2,4-2.9c0-4-10.3-1.6-10.3-7.8c0-2.6,2.2-4.8,6.2-4.8c2.3-.1,4.5.8,6.1,2.4l-1.2,1.8c-1.3-1.4-3.1-2.2-5-2.1-2.3,0-3.7,1.1-3.7,2.6c0,3.6,10.3,1.2,10.3,7.7c0,2.8-2.2,5-6.5,5-2.5.3-4.9-.7-6.7-2.4Z" fill="#575756"/><path d="M324.7,117.7l1.3-1.9c1.3,1.6,3.4,2.4,5.4,2.2c2.8,0,5.4-1.3,5.4-4.9v-2.5c-1.3,1.8-3.4,3-5.6,3-4.4,0-7.4-3.3-7.4-8.7s3-8.7,7.4-8.7c2.2,0,4.3,1.1,5.6,2.9v-2.6h2.6v16.5c0,5.3-3.9,7-8,7-2.5.4-5-.5-6.7-2.3Zm12.1-9v-7.3c-1.2-1.6-3-2.6-5-2.7-3.4,0-5.4,2.7-5.4,6.4s2,6.3,5.4,6.3c2-.1,3.9-1.1,5-2.7v0Z" fill="#575756"/><path d="M343.6,105.1c0-4.8,3.2-8.8,8.3-8.8s8.3,3.9,8.3,8.8-3.2,8.8-8.3,8.8-8.3-3.9-8.3-8.8Zm13.8,0c0-3.4-2-6.4-5.5-6.4s-5.5,3-5.5,6.4s2,6.5,5.5,6.5s5.5-3.1,5.5-6.5v0Z" fill="#575756"/><path d="M363,111.3l1.3-1.9c1.4,1.5,3.4,2.4,5.5,2.4c2.6,0,4-1.2,4-2.9c0-4-10.4-1.6-10.4-7.8c0-2.6,2.2-4.8,6.2-4.8c2.3-.1,4.6.8,6.2,2.4l-1.2,1.8c-1.3-1.4-3.1-2.2-5-2.1-2.3,0-3.7,1.1-3.7,2.6c0,3.6,10.4,1.2,10.4,7.7c0,2.8-2.2,5-6.5,5-2.6.3-5-.7-6.8-2.4Z" fill="#575756"/></svg>